<svg xmlns="http://www.w3.org/2000/svg" xmlns:xlink="http://www.w3.org/1999/xlink" id="mermaid-1615304830772" width="100%" height="654" style="max-width:3224.4921875px" viewBox="-20 -20 3224.492 654"><style>#mermaid-1615304830772{fill:#333}#mermaid-1615304830772 g.classGroup text{font-family:&quot;trebuchet ms&quot;,verdana,arial,sans-serif;fill:#131300;stroke:none;font-size:10px}#mermaid-1615304830772,#mermaid-1615304830772 svg{font-family:&quot;trebuchet ms&quot;,verdana,arial,sans-serif;font-size:16px}#mermaid-1615304830772 g.classGroup text .title{font-weight:bolder}#mermaid-1615304830772 g.classGroup rect{fill:#ececff;stroke:#9370db}#mermaid-1615304830772 g.classGroup line{stroke:#9370db;stroke-width:1}#mermaid-1615304830772 .relation{stroke:#333;stroke-width:1;fill:none}#mermaid-1615304830772 #compositionEnd,#mermaid-1615304830772 #compositionStart,#mermaid-1615304830772 #dependencyStart,#mermaid-1615304830772 #extensionEnd,#mermaid-1615304830772 #extensionStart,#mermaid-1615304830772 .extension{fill:#333!important;stroke:#333!important;stroke-width:1}#mermaid-1615304830772 #aggregationEnd,#mermaid-1615304830772 #aggregationStart{fill:#ececff!important;stroke:#333!important;stroke-width:1}#mermaid-1615304830772:root{--mermaid-font-family:&quot;trebuchet ms&quot;,verdana,arial,sans-serif}</style><defs><marker id="extensionStart" class="extension" markerHeight="240" markerWidth="190" orient="auto" refX="0" refY="7"><path d="M 1,7 L18,13 V 1 Z"/></marker></defs><defs><marker id="extensionEnd" markerHeight="28" markerWidth="20" orient="auto" refX="19" refY="7"><path d="M 1,1 V 13 L18,7 Z"/></marker></defs><defs><marker id="compositionStart" class="extension" markerHeight="240" markerWidth="190" orient="auto" refX="0" refY="7"><path d="M 18,7 L9,13 L1,7 L9,1 Z"/></marker></defs><defs><marker id="compositionEnd" markerHeight="28" markerWidth="20" orient="auto" refX="19" refY="7"><path d="M 18,7 L9,13 L1,7 L9,1 Z"/></marker></defs><defs><marker id="aggregationStart" class="extension" markerHeight="240" markerWidth="190" orient="auto" refX="0" refY="7"><path d="M 18,7 L9,13 L1,7 L9,1 Z"/></marker></defs><defs><marker id="aggregationEnd" markerHeight="28" markerWidth="20" orient="auto" refX="19" refY="7"><path d="M 18,7 L9,13 L1,7 L9,1 Z"/></marker></defs><defs><marker id="dependencyStart" class="extension" markerHeight="240" markerWidth="190" orient="auto" refX="0" refY="7"><path d="M 5,7 L9,13 L1,7 L9,1 Z"/></marker></defs><defs><marker id="dependencyEnd" markerHeight="28" markerWidth="20" orient="auto" refX="19" refY="7"><path d="M 18,7 L9,13 L14,7 L9,1 Z"/></marker></defs><g id="classid-LNumber-0" class="classGroup" transform="translate(222.33203125,0 )"><rect width="98.828" height="208" x="0" y="0"/><text x="0" y="15"><tspan x="27.773" class="title">LNumber</tspan></text><line x1="0" x2="98.828" y1="21" y2="21"/><text x="5" y="31" fill="#fff" class="classText"><tspan x="5">Number __value__</tspan></text><line x1="0" x2="98.828" y1="37" y2="37"/><text x="5" y="52" fill="#fff" class="classText"><tspan x="5">isFloat()</tspan><tspan x="5" dy="10">isNumber()</tspan><tspan x="5" dy="10">isComplex()</tspan><tspan x="5" dy="10">isRational()</tspan><tspan x="5" dy="10">isNative()</tspan><tspan x="5" dy="10">isBigInteger()</tspan><tspan x="5" dy="10">isBN()</tspan><tspan x="5" dy="10">getType()</tspan><tspan x="5" dy="10">coerce()</tspan><tspan x="5" dy="10">op()</tspan><tspan x="5" dy="10">sqrt()</tspan><tspan x="5" dy="10">pow()</tspan><tspan x="5" dy="10">abs()</tspan><tspan x="5" dy="10">isOdd()</tspan><tspan x="5" dy="10">isEven()</tspan><tspan x="5" dy="10">cmp()</tspan></text></g><g id="classid-LBigInteger-1" class="classGroup" transform="translate(0,328 )"><rect width="89.516" height="78" x="0" y="0"/><text x="0" y="15"><tspan x="17.93" class="title">LBigInteger</tspan></text><line x1="0" x2="89.516" y1="21" y2="21"/><text x="5" y="31" fill="#fff" class="classText"><tspan x="5">BigInt __value__</tspan></text><line x1="0" x2="89.516" y1="37" y2="37"/><text x="5" y="52" fill="#fff" class="classText"><tspan x="5">sqrt()</tspan><tspan x="5" dy="10">gcd()</tspan><tspan x="5" dy="10">sqrt()</tspan></text></g><g id="classid-LRational-2" class="classGroup" transform="translate(139.515625,293 )"><rect width="110.031" height="148" x="0" y="0"/><text x="0" y="15"><tspan x="33.109" class="title">LRational</tspan></text><line x1="0" x2="110.031" y1="21" y2="21"/><text x="5" y="31" fill="#fff" class="classText"><tspan x="5">LNumber __num__</tspan><tspan x="5" dy="10">LNumber __denom__</tspan></text><line x1="0" x2="110.031" y1="47" y2="47"/><text x="5" y="62" fill="#fff" class="classText"><tspan x="5">pow()</tspan><tspan x="5" dy="10">abs()</tspan><tspan x="5" dy="10">cmp()</tspan><tspan x="5" dy="10">mul()</tspan><tspan x="5" dy="10">div()</tspan><tspan x="5" dy="10">sub()</tspan><tspan x="5" dy="10">add()</tspan><tspan x="5" dy="10">valueOf()</tspan><tspan x="5" dy="10">toString()</tspan></text></g><g id="classid-LFloat-3" class="classGroup" transform="translate(299.546875,333 )"><rect width="98.828" height="68" x="0" y="0"/><text x="0" y="15"><tspan x="34.758" class="title">LFloat</tspan></text><line x1="0" x2="98.828" y1="21" y2="21"/><text x="5" y="31" fill="#fff" class="classText"><tspan x="5">Number __value__</tspan></text><line x1="0" x2="98.828" y1="37" y2="37"/><text x="5" y="52" fill="#fff" class="classText"><tspan x="5">toRational()</tspan><tspan x="5" dy="10">toString()</tspan></text></g><g id="classid-LComplex-4" class="classGroup" transform="translate(448.375,283 )"><rect width="91.031" height="168" x="0" y="0"/><text x="0" y="15"><tspan x="22.305" class="title">LComplex</tspan></text><line x1="0" x2="91.031" y1="21" y2="21"/><text x="5" y="31" fill="#fff" class="classText"><tspan x="5">LNumber __im__</tspan><tspan x="5" dy="10">LNumber __re__</tspan></text><line x1="0" x2="91.031" y1="47" y2="47"/><text x="5" y="62" fill="#fff" class="classText"><tspan x="5">sqrt()</tspan><tspan x="5" dy="10">toRational()</tspan><tspan x="5" dy="10">add()</tspan><tspan x="5" dy="10">factor()</tspan><tspan x="5" dy="10">modulus()</tspan><tspan x="5" dy="10">sqrt()</tspan><tspan x="5" dy="10">div()</tspan><tspan x="5" dy="10">sub()</tspan><tspan x="5" dy="10">mul()</tspan><tspan x="5" dy="10">cmp()</tspan><tspan x="5" dy="10">toString()</tspan></text></g><g id="classid-InputPort-5" class="classGroup" transform="translate(665.9609375,40 )"><rect width="95.484" height="128" x="0" y="0"/><text x="0" y="15"><tspan x="25.883" class="title">InputPort</tspan></text><line x1="0" x2="95.484" y1="21" y2="21"/><text x="5" y="31" fill="#fff" class="classText"><tspan x="5">Parser __parser__</tspan></text><line x1="0" x2="95.484" y1="37" y2="37"/><text x="5" y="52" fill="#fff" class="classText"><tspan x="5">read_char()</tspan><tspan x="5" dy="10">skip_char()</tspan><tspan x="5" dy="10">read_line()</tspan><tspan x="5" dy="10">read()</tspan><tspan x="5" dy="10">char_ready()</tspan><tspan x="5" dy="10">is_open()</tspan><tspan x="5" dy="10">close()</tspan><tspan x="5" dy="10">toString()</tspan></text></g><g id="classid-InputStringPort-6" class="classGroup" transform="translate(589.40625,333 )"><rect width="90.844" height="68" x="0" y="0"/><text x="0" y="15"><tspan x="9.93" class="title">InputStringPort</tspan></text><line x1="0" x2="90.844" y1="21" y2="21"/><text x="5" y="31" fill="#fff" class="classText"><tspan x="5">symbol __type__</tspan></text><line x1="0" x2="90.844" y1="37" y2="37"/><text x="5" y="52" fill="#fff" class="classText"><tspan x="5">char_ready()</tspan><tspan x="5" dy="10">toString()</tspan></text></g><g id="classid-InputFilePort-7" class="classGroup" transform="translate(582.625,541 )"><rect width="104.406" height="58" x="0" y="0"/><text x="0" y="15"><tspan x="21.586" class="title">InputFilePort</tspan></text><line x1="0" x2="104.406" y1="21" y2="21"/><text x="5" y="31" fill="#fff" class="classText"><tspan x="5">string __filename__</tspan></text><line x1="0" x2="104.406" y1="37" y2="37"/><text x="5" y="52" fill="#fff" class="classText"><tspan x="5">toStgring()</tspan></text></g><g id="classid-OutputPort-8" class="classGroup" transform="translate(1061.78125,60 )"><rect width="90.844" height="88" x="0" y="0"/><text x="0" y="15"><tspan x="19.453" class="title">OutputPort</tspan></text><line x1="0" x2="90.844" y1="21" y2="21"/><text x="5" y="31" fill="#fff" class="classText"><tspan x="5">symbol __type__</tspan></text><line x1="0" x2="90.844" y1="37" y2="37"/><text x="5" y="52" fill="#fff" class="classText"><tspan x="5">write()</tspan><tspan x="5" dy="10">is_open()</tspan><tspan x="5" dy="10">close()</tspan><tspan x="5" dy="10">toString()</tspan></text></g><g id="classid-OutputStringPort-9" class="classGroup" transform="translate(904.90625,323 )"><rect width="100.094" height="88" x="0" y="0"/><text x="0" y="15"><tspan x="10.445" class="title">OutputStringPort</tspan></text><line x1="0" x2="100.094" y1="21" y2="21"/><text x="5" y="31" fill="#fff" class="classText"><tspan x="5">string[] __buffer__</tspan><tspan x="5" dy="10">symbol __type__</tspan></text><line x1="0" x2="100.094" y1="47" y2="47"/><text x="5" y="62" fill="#fff" class="classText"><tspan x="5">write()</tspan><tspan x="5" dy="10">valueOf()</tspan><tspan x="5" dy="10">toString()</tspan></text></g><g id="classid-OutputFilePort-10" class="classGroup" transform="translate(1055,318 )"><rect width="104.406" height="98" x="0" y="0"/><text x="0" y="15"><tspan x="17.477" class="title">OutputFilePort</tspan></text><line x1="0" x2="104.406" y1="21" y2="21"/><text x="5" y="31" fill="#fff" class="classText"><tspan x="5">string __filename__</tspan><tspan x="5" dy="10">symbol __type__</tspan></text><line x1="0" x2="104.406" y1="47" y2="47"/><text x="5" y="62" fill="#fff" class="classText"><tspan x="5">fs()</tspan><tspan x="5" dy="10">internal()</tspan><tspan x="5" dy="10">close()</tspan><tspan x="5" dy="10">toString()</tspan></text></g><g id="classid-OutputByteVectorPort-11" class="classGroup" transform="translate(1209.40625,308 )"><rect width="143.859" height="118" x="0" y="0"/><text x="0" y="15"><tspan x="20.242" class="title">OutputByteVectorPort</tspan></text><line x1="0" x2="143.859" y1="21" y2="21"/><text x="5" y="31" fill="#fff" class="classText"><tspan x="5">Uin8Array __buffer__</tspan><tspan x="5" dy="10">symbol __type__</tspan></text><line x1="0" x2="143.859" y1="47" y2="47"/><text x="5" y="62" fill="#fff" class="classText"><tspan x="5">write(any)</tspan><tspan x="5" dy="10">close()</tspan><tspan x="5" dy="10">write_u8(byte)</tspan><tspan x="5" dy="10">write_u8_vector(Uint8Array)</tspan><tspan x="5" dy="10">toString()</tspan><tspan x="5" dy="10">valueOf()</tspan></text></g><g id="classid-InputByteVectorPort-12" class="classGroup" transform="translate(730.25,293 )"><rect width="124.656" height="148" x="0" y="0"/><text x="0" y="15"><tspan x="14.75" class="title">InputByteVectorPort</tspan></text><line x1="0" x2="124.656" y1="21" y2="21"/><text x="5" y="31" fill="#fff" class="classText"><tspan x="5">symbol __type__</tspan><tspan x="5" dy="10">Uint8Array __vector__</tspan><tspan x="5" dy="10">integer __index__</tspan><tspan x="5" dy="10">string __filename__</tspan></text><line x1="0" x2="124.656" y1="67" y2="67"/><text x="5" y="82" fill="#fff" class="classText"><tspan x="5">toString()</tspan><tspan x="5" dy="10">u8_ready()</tspan><tspan x="5" dy="10">peek_u8()</tspan><tspan x="5" dy="10">skip()</tspan><tspan x="5" dy="10">read_u8()</tspan><tspan x="5" dy="10">read_u8_vector(integer)</tspan><tspan x="5" dy="10">toString()</tspan></text></g><g id="classid-InputBinaryFilePort-13" class="classGroup" transform="translate(740.375,541 )"><rect width="104.406" height="58" x="0" y="0"/><text x="0" y="15"><tspan x="6.695" class="title">InputBinaryFilePort</tspan></text><line x1="0" x2="104.406" y1="21" y2="21"/><text x="5" y="31" fill="#fff" class="classText"><tspan x="5">string __filename__</tspan></text><line x1="0" x2="104.406" y1="37" y2="37"/><text x="5" y="52" fill="#fff" class="classText"><tspan x="5">toString()</tspan></text></g><g id="classid-OutputBinaryFilePort-14" class="classGroup" transform="translate(1035.2734375,526 )"><rect width="143.859" height="88" x="0" y="0"/><text x="0" y="15"><tspan x="22.313" class="title">OutputBinaryFilePort</tspan></text><line x1="0" x2="143.859" y1="21" y2="21"/><text x="5" y="31" fill="#fff" class="classText"><tspan x="5">string __filename__</tspan><tspan x="5" dy="10">symbol __type__</tspan></text><line x1="0" x2="143.859" y1="47" y2="47"/><text x="5" y="62" fill="#fff" class="classText"><tspan x="5">write(any)</tspan><tspan x="5" dy="10">write_u8(byte)</tspan><tspan x="5" dy="10">write_u8_vector(Uint8Array)</tspan></text></g><g id="classid-Parser-15" class="classGroup" transform="translate(1396.1015625,10 )"><rect width="106.875" height="188" x="0" y="0"/><text x="0" y="15"><tspan x="38.406" class="title">Parser</tspan></text><line x1="0" x2="106.875" y1="21" y2="21"/><text x="5" y="31" fill="#fff" class="classText"><tspan x="5">Lexer __lexer__</tspan><tspan x="5" dy="10">Environent __env__</tspan></text><line x1="0" x2="106.875" y1="47" y2="47"/><text x="5" y="62" fill="#fff" class="classText"><tspan x="5">resolve()</tspan><tspan x="5" dy="10">peek()</tspan><tspan x="5" dy="10">skip()</tspan><tspan x="5" dy="10">read()</tspan><tspan x="5" dy="10">is_special(token)</tspan><tspan x="5" dy="10">is_builtin(token)</tspan><tspan x="5" dy="10">is_open(token)</tspan><tspan x="5" dy="10">is_close(token)</tspan><tspan x="5" dy="10">read_list()</tspan><tspan x="5" dy="10">read_value()</tspan><tspan x="5" dy="10">read_object()</tspan><tspan x="5" dy="10">is_ccomment(token)</tspan><tspan x="5" dy="10">evaluate(code)</tspan></text></g><g id="classid-Lexer-16" class="classGroup" transform="translate(1403.265625,283 )"><rect width="92.547" height="168" x="0" y="0"/><text x="0" y="15"><tspan x="32.5" class="title">Lexer</tspan></text><line x1="0" x2="92.547" y1="21" y2="21"/><text x="5" y="31" fill="#fff" class="classText"><tspan x="5">string __input__</tspan><tspan x="5" dy="10">static rules</tspan></text><line x1="0" x2="92.547" y1="47" y2="47"/><text x="5" y="62" fill="#fff" class="classText"><tspan x="5">token(meta)</tspan><tspan x="5" dy="10">peek(meta)</tspan><tspan x="5" dy="10">skip()</tspan><tspan x="5" dy="10">read_line()</tspan><tspan x="5" dy="10">read_rest()</tspan><tspan x="5" dy="10">read_string(num)</tspan><tspan x="5" dy="10">peek_char()</tspan><tspan x="5" dy="10">read_char()</tspan><tspan x="5" dy="10">skip_char()</tspan><tspan x="5" dy="10">match_rule()</tspan><tspan x="5" dy="10">next_token()</tspan></text></g><g id="classid-Macro-17" class="classGroup" transform="translate(1552.9765625,50 )"><rect width="117.656" height="108" x="0" y="0"/><text x="0" y="15"><tspan x="44.742" class="title">Macro</tspan></text><line x1="0" x2="117.656" y1="21" y2="21"/><text x="5" y="31" fill="#fff" class="classText"><tspan x="5">string __doc__</tspan><tspan x="5" dy="10">string __name__</tspan><tspan x="5" dy="10">boolean __defmacro__</tspan><tspan x="5" dy="10">Function __fn__</tspan></text><line x1="0" x2="117.656" y1="67" y2="67"/><text x="5" y="82" fill="#fff" class="classText"><tspan x="5">defmacro()</tspan><tspan x="5" dy="10">invoke()</tspan><tspan x="5" dy="10">toString()</tspan></text></g><g id="classid-Syntax-18" class="classGroup" transform="translate(1582.8046875,338.5 )"><rect width="58" height="57" x="0" y="0"/><text x="0" y="15"><tspan x="13.172" class="title">Syntax</tspan></text><line x1="0" x2="58" y1="21" y2="21"/><line x1="0" x2="58" y1="26" y2="26"/><text x="5" y="41" fill="#fff" class="classText"><tspan x="5">invoke()</tspan><tspan x="5" dy="10">toString()</tspan></text></g><g id="classid-String-19" class="classGroup" transform="translate(1734.5234375,89 )"><rect width="37.266" height="30" x="0" y="0"/><text x="0" y="15"><tspan x="5" class="title">String</tspan></text><line x1="0" x2="37.266" y1="21" y2="21"/><line x1="0" x2="37.266" y1="26" y2="26"/></g><g id="classid-LString-20" class="classGroup" transform="translate(1690.8046875,298 )"><rect width="124.703" height="138" x="0" y="0"/><text x="0" y="15"><tspan x="45.953" class="title">LString</tspan></text><line x1="0" x2="124.703" y1="21" y2="21"/><text x="5" y="31" fill="#fff" class="classText"><tspan x="5">string __string__</tspan><tspan x="5" dy="10">number length</tspan></text><line x1="0" x2="124.703" y1="47" y2="47"/><text x="5" y="62" fill="#fff" class="classText"><tspan x="5">toString()</tspan><tspan x="5" dy="10">get(number)</tspan><tspan x="5" dy="10">cmp(string)</tspan><tspan x="5" dy="10">lower()</tspan><tspan x="5" dy="10">upper()</tspan><tspan x="5" dy="10">set(number, LCharacter)</tspan><tspan x="5" dy="10">clone()</tspan><tspan x="5" dy="10">fill(LCharacter)</tspan></text></g><g id="classid-Formatter-21" class="classGroup" transform="translate(1867.40625,60 )"><rect width="152.984" height="88" x="0" y="0"/><text x="0" y="15"><tspan x="52.539" class="title">Formatter</tspan></text><line x1="0" x2="152.984" y1="21" y2="21"/><text x="5" y="31" fill="#fff" class="classText"><tspan x="5">string __code__</tspan></text><line x1="0" x2="152.984" y1="37" y2="37"/><text x="5" y="52" fill="#fff" class="classText"><tspan x="5">indent(object)</tspan><tspan x="5" dy="10">exception_shift(token, object)</tspan><tspan x="5" dy="10">break()</tspan><tspan x="5" dy="10">format()</tspan></text></g><g id="classid-Ahead-22" class="classGroup" transform="translate(1872.05859375,352 )"><rect width="39.344" height="30" x="0" y="0"/><text x="0" y="15"><tspan x="5" class="title">Ahead</tspan></text><line x1="0" x2="39.344" y1="21" y2="21"/><line x1="0" x2="39.344" y1="26" y2="26"/></g><g id="classid-Pattern-23" class="classGroup" transform="translate(1961.40234375,341.5 )"><rect width="69.328" height="51" x="0" y="0"/><text x="0" y="15"><tspan x="17.32" class="title">Pattern</tspan></text><line x1="0" x2="69.328" y1="21" y2="21"/><text x="5" y="31" fill="#fff" class="classText"><tspan x="5">rule pattern</tspan><tspan x="5" dy="10">string flag</tspan></text><line x1="0" x2="69.328" y1="47" y2="47"/></g><g id="classid-Interpreter-24" class="classGroup" transform="translate(2090.7734375,60 )"><rect width="192.172" height="88" x="0" y="0"/><text x="0" y="15"><tspan x="69.469" class="title">Interpreter</tspan></text><line x1="0" x2="192.172" y1="21" y2="21"/><text x="5" y="31" fill="#fff" class="classText"><tspan x="5">Environment __env__</tspan></text><line x1="0" x2="192.172" y1="37" y2="37"/><text x="5" y="52" fill="#fff" class="classText"><tspan x="5">get(symbol)</tspan><tspan x="5" dy="10">set(symbol, value)</tspan><tspan x="5" dy="10">constant(name, value)</tspan><tspan x="5" dy="10">exec(code, dynamic = false, env = null)</tspan></text></g><g id="classid-Environment-25" class="classGroup" transform="translate(2112.515625,258 )"><rect width="148.688" height="218" x="0" y="0"/><text x="0" y="15"><tspan x="44.219" class="title">Environment</tspan></text><line x1="0" x2="148.688" y1="21" y2="21"/><text x="5" y="31" fill="#fff" class="classText"><tspan x="5">string __name__</tspan><tspan x="5" dy="10">Map __docs__</tspan><tspan x="5" dy="10">Object __env__</tspan><tspan x="5" dy="10">Environment __parent__</tspan></text><line x1="0" x2="148.688" y1="67" y2="67"/><text x="5" y="82" fill="#fff" class="classText"><tspan x="5">list()</tspan><tspan x="5" dy="10">uset(name)</tspan><tspan x="5" dy="10">inherit(name, object)</tspan><tspan x="5" dy="10">doc(name, value = null)</tspan><tspan x="5" dy="10">get(symbol, options)</tspan><tspan x="5" dy="10">set(symbol, value, doc = null)</tspan><tspan x="5" dy="10">constant(name, value)</tspan><tspan x="5" dy="10">has(string)</tspan><tspan x="5" dy="10">ref(string)</tspan><tspan x="5" dy="10">parents()</tspan><tspan x="5" dy="10">newFrame(Function, args)</tspan><tspan x="5" dy="10">clone()</tspan><tspan x="5" dy="10">merge()</tspan><tspan x="5" dy="10">toString()</tspan></text></g><g id="classid-Worker-26" class="classGroup" transform="translate(2332.9453125,65 )"><rect width="116.25" height="78" x="0" y="0"/><text x="0" y="15"><tspan x="40.711" class="title">Worker</tspan></text><line x1="0" x2="116.25" y1="21" y2="21"/><text x="5" y="31" fill="#fff" class="classText"><tspan x="5">string url</tspan><tspan x="5" dy="10">Worker worker</tspan></text><line x1="0" x2="116.25" y1="47" y2="47"/><text x="5" y="62" fill="#fff" class="classText"><tspan x="5">rpc(method, params)</tspan><tspan x="5" dy="10">exec(code, [dynamic])</tspan></text></g><g id="classid-LCharacter-27" class="classGroup" transform="translate(2499.1953125,55 )"><rect width="89.453" height="98" x="0" y="0"/><text x="0" y="15"><tspan x="18.711" class="title">LCharacter</tspan></text><line x1="0" x2="89.453" y1="21" y2="21"/><text x="5" y="31" fill="#fff" class="classText"><tspan x="5">string __name__</tspan><tspan x="5" dy="10">string __char__</tspan></text><line x1="0" x2="89.453" y1="47" y2="47"/><text x="5" y="62" fill="#fff" class="classText"><tspan x="5">toUpperCase()</tspan><tspan x="5" dy="10">toLowerCase()</tspan><tspan x="5" dy="10">toString()</tspan><tspan x="5" dy="10">valueOf()</tspan></text></g><g id="classid-LSymbol-28" class="classGroup" transform="translate(2638.6484375,83.5 )"><rect width="89.453" height="41" x="0" y="0"/><text x="0" y="15"><tspan x="25.203" class="title">LSymbol</tspan></text><line x1="0" x2="89.453" y1="21" y2="21"/><text x="5" y="31" fill="#fff" class="classText"><tspan x="5">string __name__</tspan></text><line x1="0" x2="89.453" y1="37" y2="37"/></g><g id="classid-Values-29" class="classGroup" transform="translate(2778.1015625,70 )"><rect width="90.813" height="68" x="0" y="0"/><text x="0" y="15"><tspan x="30.547" class="title">Values</tspan></text><line x1="0" x2="90.813" y1="21" y2="21"/><text x="5" y="31" fill="#fff" class="classText"><tspan x="5">any[] __values__</tspan></text><line x1="0" x2="90.813" y1="37" y2="37"/><text x="5" y="52" fill="#fff" class="classText"><tspan x="5">valueOf()</tspan><tspan x="5" dy="10">toString()</tspan></text></g><g id="classid-QuotedPromise-30" class="classGroup" transform="translate(2918.9140625,65 )"><rect width="110.25" height="78" x="0" y="0"/><text x="0" y="15"><tspan x="19.195" class="title">QuotedPromise</tspan></text><line x1="0" x2="110.25" y1="21" y2="21"/><text x="5" y="31" fill="#fff" class="classText"><tspan x="5">Promise __promise__</tspan></text><line x1="0" x2="110.25" y1="37" y2="37"/><text x="5" y="52" fill="#fff" class="classText"><tspan x="5">then()</tspan><tspan x="5" dy="10">catch()</tspan><tspan x="5" dy="10">valueOf()</tspan></text></g><g id="classid-Pair-31" class="classGroup" transform="translate(3079.1640625,20 )"><rect width="105.328" height="168" x="0" y="0"/><text x="0" y="15"><tspan x="43.305" class="title">Pair</tspan></text><line x1="0" x2="105.328" y1="21" y2="21"/><text x="5" y="31" fill="#fff" class="classText"><tspan x="5">any car</tspan><tspan x="5" dy="10">any cdr</tspan></text><line x1="0" x2="105.328" y1="47" y2="47"/><text x="5" y="62" fill="#fff" class="classText"><tspan x="5">flatten()</tspan><tspan x="5" dy="10">length()</tspan><tspan x="5" dy="10">find(any)</tspan><tspan x="5" dy="10">clone()</tspan><tspan x="5" dy="10">last_pair()</tspan><tspan x="5" dy="10">to_array()</tspan><tspan x="5" dy="10">to_object()</tspan><tspan x="5" dy="10">reduce(Function)</tspan><tspan x="5" dy="10">reverse()</tspan><tspan x="5" dy="10">transform(Function)</tspan><tspan x="5" dy="10">map(Function)</tspan></text></g><path id="edge0" marker-start="url(#extensionStart)" d="M222.33203125,132.08256896522053L192.736328125,148.90214080435044C163.140625,165.72171264348034,103.94921875,199.36085632174016,74.353515625,232.01376149420344C44.7578125,264.6666666666667,44.7578125,296.3333333333333,44.7578125,312.1666666666667L44.7578125,328" class="relation"/><path id="edge1" marker-start="url(#extensionStart)" d="M222.33203125,186.55425709515862L217.69856770833334,194.29521424596552C213.06510416666666,202.0361713967724,203.79817708333334,217.51808569838622,199.16471354166666,235.2590428491931C194.53125,253,194.53125,273,194.53125,283L194.53125,293" class="relation"/><path id="edge2" marker-start="url(#extensionStart)" d="M321.16015625,186.55425709515862L325.7936197916667,194.29521424596552C330.4270833333333,202.0361713967724,339.6940104166667,217.51808569838622,344.3274739583333,241.92570951585978C348.9609375,266.3333333333333,348.9609375,299.6666666666667,348.9609375,316.3333333333333L348.9609375,333" class="relation"/><path id="edge3" marker-start="url(#extensionStart)" d="M321.16015625,132.69489528565651L349.9485677083333,149.4124127380471C378.7369791666667,166.12993019043768,436.3138020833333,199.5649650952188,465.1022135416667,224.61581588094273C493.890625,249.66666666666666,493.890625,266.3333333333333,493.890625,274.6666666666667L493.890625,283" class="relation"/><path id="edge4" marker-start="url(#extensionStart)" d="M674.5713420542636,168L667.9474725452196,178.83333333333334C661.3236030361758,189.66666666666666,648.0758640180878,211.33333333333334,641.4519945090439,238.83333333333334C634.828125,266.3333333333333,634.828125,299.6666666666667,634.828125,316.3333333333333L634.828125,333" class="relation"/><path id="edge5" marker-start="url(#extensionStart)" d="M634.828125,401L634.828125,417.6666666666667C634.828125,434.3333333333333,634.828125,467.6666666666667,634.828125,491C634.828125,514.3333333333334,634.828125,527.6666666666666,634.828125,534.3333333333334L634.828125,541" class="relation"/><path id="edge6" marker-start="url(#extensionStart)" d="M1061.78125,142.48552955665025L1043.9765625,157.57127463054186C1026.171875,172.6570197044335,990.5625,202.82850985221674,972.7578125,232.91425492610838C954.953125,263,954.953125,293,954.953125,308L954.953125,323" class="relation"/><path id="edge7" marker-start="url(#extensionStart)" d="M1107.203125,148L1107.203125,162.16666666666666C1107.203125,176.33333333333334,1107.203125,204.66666666666666,1107.203125,233C1107.203125,261.3333333333333,1107.203125,289.6666666666667,1107.203125,303.8333333333333L1107.203125,318" class="relation"/><path id="edge8" marker-start="url(#extensionStart)" d="M1152.625,137.64915429135448L1174.0768229166667,153.54096190946208C1195.5286458333333,169.43276952756966,1238.4322916666667,201.21638476378484,1259.8841145833333,229.60819238189242C1281.3359375,258,1281.3359375,283,1281.3359375,295.5L1281.3359375,308" class="relation"/><path id="edge9" marker-start="url(#extensionStart)" d="M752.8349079457364,168L759.4587774547804,178.83333333333334C766.0826469638242,189.66666666666666,779.3303859819122,211.33333333333334,785.9542554909561,232.16666666666666C792.578125,253,792.578125,273,792.578125,283L792.578125,293" class="relation"/><path id="edge10" marker-start="url(#extensionStart)" d="M792.578125,441L792.578125,451C792.578125,461,792.578125,481,792.578125,497.6666666666667C792.578125,514.3333333333334,792.578125,527.6666666666666,792.578125,534.3333333333334L792.578125,541" class="relation"/><path id="edge11" marker-start="url(#extensionStart)" d="M1107.203125,416L1107.203125,430.1666666666667C1107.203125,444.3333333333333,1107.203125,472.6666666666667,1107.203125,491C1107.203125,509.3333333333333,1107.203125,517.6666666666666,1107.203125,521.8333333333334L1107.203125,526" class="relation"/><path id="edge12" marker-start="url(#compositionStart)" d="M1449.5390625,198L1449.5390625,203.83333333333334C1449.5390625,209.66666666666666,1449.5390625,221.33333333333334,1449.5390625,235.5C1449.5390625,249.66666666666666,1449.5390625,266.3333333333333,1449.5390625,274.6666666666667L1449.5390625,283" class="relation"/><path id="edge13" marker-start="url(#extensionStart)" d="M1611.8046875,158L1611.8046875,170.5C1611.8046875,183,1611.8046875,208,1611.8046875,238.08333333333334C1611.8046875,268.1666666666667,1611.8046875,303.3333333333333,1611.8046875,320.9166666666667L1611.8046875,338.5" class="relation"/><path id="edge14" marker-start="url(#extensionStart)" d="M1753.15625,119L1753.15625,138C1753.15625,157,1753.15625,195,1753.15625,224.83333333333334C1753.15625,254.66666666666666,1753.15625,276.3333333333333,1753.15625,287.1666666666667L1753.15625,298" class="relation"/><path id="edge15" marker-start="url(#compositionStart)" d="M1926.1047117248063,148L1920.375671229005,162.16666666666666C1914.6466307332041,176.33333333333334,1903.1885497416022,204.66666666666666,1897.459509245801,238.66666666666666C1891.73046875,272.6666666666667,1891.73046875,312.3333333333333,1891.73046875,332.1666666666667L1891.73046875,352" class="relation"/><path id="edge16" marker-start="url(#compositionStart)" d="M1961.6921632751937,148L1967.421203770995,162.16666666666666C1973.1502442667959,176.33333333333334,1984.6083252583978,204.66666666666666,1990.337365754199,236.91666666666666C1996.06640625,269.1666666666667,1996.06640625,305.3333333333333,1996.06640625,323.4166666666667L1996.06640625,341.5" class="relation"/><path id="edge17" marker-start="url(#compositionStart)" d="M2186.859375,148L2186.859375,162.16666666666666C2186.859375,176.33333333333334,2186.859375,204.66666666666666,2186.859375,223C2186.859375,241.33333333333334,2186.859375,249.66666666666666,2186.859375,253.83333333333334L2186.859375,258" class="relation"/></svg>