<svg xmlns="http://www.w3.org/2000/svg" xmlns:xlink="http://www.w3.org/1999/xlink" width="30cm" height="16cm" viewBox="-1 -3 588 316"><g><rect style="fill:#fff" width="62" height="39" x="303" y="176"/><rect style="fill:none;fill-opacity:0;stroke-width:2;stroke:#000" width="62" height="39" x="303" y="176"/><text font-size="12.8" style="fill:#000;text-anchor:middle;font-family:sans-serif;font-style:normal;font-weight:400" x="334" y="199.462"><tspan x="334" y="199.462">Parser</tspan></text></g><g><rect style="fill:#fff" width="62" height="38" x="303.1" y="274.1"/><rect style="fill:none;fill-opacity:0;stroke-width:2;stroke:#000" width="62" height="38" x="303.1" y="274.1"/><text font-size="12.8" style="fill:#000;text-anchor:middle;font-family:sans-serif;font-style:normal;font-weight:400" x="334.1" y="297.062"><tspan x="334.1" y="297.062">Lexer</tspan></text></g><g><rect style="fill:#fff" width="135.45" height="38" x="450.798" y="60.477"/><rect style="fill:none;fill-opacity:0;stroke-width:2;stroke:#000" width="135.45" height="38" x="450.798" y="60.477"/><text font-size="12.8" style="fill:#000;text-anchor:middle;font-family:sans-serif;font-style:normal;font-weight:400" x="518.523" y="83.44"><tspan x="518.523" y="83.44">Character Stream</tspan></text></g><g><rect style="fill:#fff" width="62.226" height="45.941" x="302.272" y="57.74"/><rect style="fill:none;fill-opacity:0;stroke-width:2;stroke:#000" width="62.226" height="45.941" x="302.272" y="57.74"/><text font-size="12.8" style="fill:#000;text-anchor:middle;font-family:sans-serif;font-style:normal;font-weight:400" x="333.385" y="84.673"><tspan x="333.385" y="84.673">exec</tspan></text></g><g><rect style="fill:#fff" width="80.969" height="42.578" x="105.502" y="59.422"/><rect style="fill:none;fill-opacity:0;stroke-width:2;stroke:#000" width="80.969" height="42.578" x="105.502" y="59.422"/><text font-size="12.8" style="fill:#000;text-anchor:middle;font-family:sans-serif;font-style:normal;font-weight:400" x="145.987" y="84.673"><tspan x="145.987" y="84.673">evaluate</tspan></text></g><g><line style="fill:none;fill-opacity:0;stroke-width:2;stroke:#000" x1="372.668" x2="450.798" y1="80.298" y2="79.477"/><polygon style="fill:#000" points="365.497 80.374 370.444 75.321 375.497 80.269 370.549 85.321"/><polygon style="fill:none;fill-opacity:0;stroke-width:2;stroke:#000" points="365.497 80.374 370.444 75.321 375.497 80.269 370.549 85.321"/></g><g><line style="fill:none;fill-opacity:0;stroke-width:2;stroke:#000" x1="348.941" x2="349.425" y1="103.682" y2="166.264"/><polygon style="fill:#000" points="349.483 173.764 344.406 163.803 349.425 166.264 354.405 163.726"/><polygon style="fill:none;fill-opacity:0;stroke-width:2;stroke:#000" points="349.483 173.764 344.406 163.803 349.425 166.264 354.405 163.726"/></g><g><line style="fill:none;fill-opacity:0;stroke-width:2;stroke:#000" x1="334" x2="334.084" y1="215" y2="264.364"/><polygon style="fill:#000" points="334.096 271.864 329.079 261.872 334.084 264.364 339.079 261.855"/><polygon style="fill:none;fill-opacity:0;stroke-width:2;stroke:#000" points="334.096 271.864 329.079 261.872 334.084 264.364 339.079 261.855"/></g><g><line style="fill:none;fill-opacity:0;stroke-width:2;stroke:#000" x1="318.5" x2="317.919" y1="176" y2="113.417"/><polygon style="fill:#000" points="317.849 105.918 322.942 115.871 317.919 113.417 312.942 115.964"/><polygon style="fill:none;fill-opacity:0;stroke-width:2;stroke:#000" points="317.849 105.918 322.942 115.871 317.919 113.417 312.942 115.964"/></g><g><line style="fill:none;fill-opacity:0;stroke-width:2;stroke:#000" x1="302.272" x2="196.207" y1="92.196" y2="91.426"/><polygon style="fill:#000" points="188.707 91.372 198.743 86.445 196.207 91.426 198.671 96.444"/><polygon style="fill:none;fill-opacity:0;stroke-width:2;stroke:#000" points="188.707 91.372 198.743 86.445 196.207 91.426 198.671 96.444"/></g><g><polyline style="fill:none;fill-opacity:0;stroke-width:2;stroke-dasharray:4;stroke:#000" points="372.272 293.1 518.523 293.1 518.523 98.477"/><polygon style="fill:#000" points="365.1 293.1 370.1 288.1 375.1 293.1 370.1 298.1"/><polygon style="fill:none;fill-opacity:0;stroke-width:2;stroke:#000" points="365.1 293.1 370.1 288.1 375.1 293.1 370.1 298.1"/></g><g><rect style="fill:#fff" width="84.75" height="54" x="104.149" y="167.716"/><rect style="fill:none;fill-opacity:0;stroke-width:2;stroke:#000" width="84.75" height="54" x="104.149" y="167.716"/><text font-size="12.8" style="fill:#000;text-anchor:middle;font-family:sans-serif;font-style:normal;font-weight:400" x="146.524" y="190.678"><tspan x="146.524" y="190.678">Syntax</tspan> <tspan x="146.524" y="206.678">Extension</tspan></text></g><g><line style="fill:none;fill-opacity:0;stroke-width:2;stroke:#000" x1="145.987" x2="146.445" y1="102" y2="157.98"/><polygon style="fill:#000" points="146.506 165.48 141.424 155.521 146.445 157.98 151.424 155.439"/><polygon style="fill:none;fill-opacity:0;stroke-width:2;stroke:#000" points="146.506 165.48 141.424 155.521 146.445 157.98 151.424 155.439"/></g><g><line style="fill:none;fill-opacity:0;stroke-width:2;stroke:#000" x1="188.899" x2="293.264" y1="194.716" y2="195.433"/><polygon style="fill:#000" points="300.764 195.485 290.73 200.416 293.264 195.433 290.799 190.416"/><polygon style="fill:none;fill-opacity:0;stroke-width:2;stroke:#000" points="300.764 195.485 290.73 200.416 293.264 195.433 290.799 190.416"/></g><g><rect style="fill:#fff" width="130.21" height="38" x="450.398" y="-1.713"/><rect style="fill:none;fill-opacity:0;stroke-width:2;stroke:#000" width="130.21" height="38" x="450.398" y="-1.713"/><text font-size="12.8" style="fill:#000;text-anchor:middle;font-family:sans-serif;font-style:normal;font-weight:400" x="515.503" y="21.249"><tspan x="515.503" y="21.249">Environment</tspan></text></g><g><polyline style="fill:none;fill-opacity:0;stroke-width:2;stroke:#000" points="450.398 26.787 334.226 25.786 333.573 50.571"/><polygon style="fill:#000" points="333.385 57.74 328.518 52.611 333.648 47.744 338.515 52.874"/><polygon style="fill:none;fill-opacity:0;stroke-width:2;stroke:#000" points="333.385 57.74 328.518 52.611 333.648 47.744 338.515 52.874"/></g><g><polyline style="fill:none;fill-opacity:0;stroke-width:2;stroke-dasharray:4;stroke:#000" points="450.398 7.787 148.388 8.128 146.322 52.258"/><polygon style="fill:#000" points="145.987 59.422 141.226 54.194 146.454 49.433 151.215 54.661"/><polygon style="fill:none;fill-opacity:0;stroke-width:2;stroke:#000" points="145.987 59.422 141.226 54.194 146.454 49.433 151.215 54.661"/></g><g><rect style="fill:#fff" width="57.825" height="41.613" x=".39" y="59.422"/><rect style="fill:none;fill-opacity:0;stroke-width:2;stroke:#000" width="57.825" height="41.613" x=".39" y="59.422"/><text font-size="12.8" style="fill:#000;text-anchor:middle;font-family:sans-serif;font-style:normal;font-weight:400" x="29.302" y="84.191"><tspan x="29.302" y="84.191">apply</tspan></text></g><g><line style="fill:none;fill-opacity:0;stroke-width:2;stroke:#000" x1="105.502" x2="67.951" y1="70.067" y2="69.875"/><polygon style="fill:#000" points="60.451 69.837 70.476 64.888 67.951 69.875 70.425 74.888"/><polygon style="fill:none;fill-opacity:0;stroke-width:2;stroke:#000" points="60.451 69.837 70.476 64.888 67.951 69.875 70.425 74.888"/></g><g><line style="fill:none;fill-opacity:0;stroke-width:2;stroke:#000" x1="58.215" x2="95.767" y1="90.632" y2="91.207"/><polygon style="fill:#000" points="103.266 91.321 93.191 96.168 95.767 91.207 93.344 86.169"/><polygon style="fill:none;fill-opacity:0;stroke-width:2;stroke:#000" points="103.266 91.321 93.191 96.168 95.767 91.207 93.344 86.169"/></g><g><line style="fill:none;fill-opacity:0;stroke-width:2;stroke:#000" x1="186.471" x2="292.536" y1="70.067" y2="69.296"/><polygon style="fill:#000" points="300.036 69.242 290.072 74.314 292.536 69.296 290 64.315"/><polygon style="fill:none;fill-opacity:0;stroke-width:2;stroke:#000" points="300.036 69.242 290.072 74.314 292.536 69.296 290 64.315"/></g></svg>